HIERARCHY
ROOT Hips
{
	OFFSET -6.501393 103.544830 -3.308209
	CHANNELS 6 Xposition Yposition Zposition Zrotation Yrotation Xrotation 
	JOINT Chest
	{
		OFFSET 3.490766 13.188873 -0.149589
		CHANNELS 6 Xposition Yposition Zposition Zrotation Yrotation Xrotation 
		JOINT Chest2
		{
			OFFSET 2.498665 20.695694 4.950911
			CHANNELS 6 Xposition Yposition Zposition Zrotation Yrotation Xrotation 
			JOINT Chest3
			{
				OFFSET 2.586676 14.483231 2.522879
				CHANNELS 6 Xposition Yposition Zposition Zrotation Yrotation Xrotation 
				JOINT Neck
				{
					OFFSET 3.658716 16.642105 2.875753
					CHANNELS 6 Xposition Yposition Zposition Zrotation Yrotation Xrotation 
					JOINT Head
					{
						OFFSET 0.562498 9.917938 3.338517
						CHANNELS 6 Xposition Yposition Zposition Zrotation Yrotation Xrotation 
						End Site #name: Head_end_site
						{
							OFFSET 0.623727 9.927261 3.299727
						}
					}
				}
				JOINT LeftCollar
				{
					OFFSET 3.158933 11.826752 7.207877
					CHANNELS 6 Xposition Yposition Zposition Zrotation Yrotation Xrotation 
					JOINT LeftUpArm
					{
						OFFSET 9.662516 -4.699112 13.894368
						CHANNELS 6 Xposition Yposition Zposition Zrotation Yrotation Xrotation 
						JOINT LeftLowArm
						{
							OFFSET -26.061760 -12.379883 17.528591
							CHANNELS 6 Xposition Yposition Zposition Zrotation Yrotation Xrotation 
							JOINT LeftHand
							{
								OFFSET -23.105013 -13.493835 13.602276
								CHANNELS 6 Xposition Yposition Zposition Zrotation Yrotation Xrotation 
								End Site #name: LeftHand_end_site
								{
									OFFSET -5.049747 -2.949127 2.972858
								}
							}
						}
					}
				}
				JOINT RightCollar
				{
					OFFSET -1.958067 14.041336 0.903037
					CHANNELS 6 Xposition Yposition Zposition Zrotation Yrotation Xrotation 
					JOINT RightUpArm
					{
						OFFSET -7.902977 5.073425 -14.842493
						CHANNELS 6 Xposition Yposition Zposition Zrotation Yrotation Xrotation 
						JOINT RightLowArm
						{
							OFFSET -31.237156 3.028915 12.441875
							CHANNELS 6 Xposition Yposition Zposition Zrotation Yrotation Xrotation 
							JOINT RightHand
							{
								OFFSET 1.770481 -9.929611 28.270538
								CHANNELS 6 Xposition Yposition Zposition Zrotation Yrotation Xrotation 
								End Site #name: RightHand_end_site
								{
									OFFSET 0.386944 -2.170212 6.178812
								}
							}
						}
					}
				}
			}
		}
	}
	JOINT LeftUpLeg
	{
		OFFSET 6.008414 -1.501137 7.878114
		CHANNELS 6 Xposition Yposition Zposition Zrotation Yrotation Xrotation 
		JOINT LeftLowLeg
		{
			OFFSET -32.490929 -13.194344 31.847103
			CHANNELS 6 Xposition Yposition Zposition Zrotation Yrotation Xrotation 
			JOINT LeftFoot
			{
				OFFSET -27.394722 -30.609779 17.695694
				CHANNELS 6 Xposition Yposition Zposition Zrotation Yrotation Xrotation 
				JOINT LeftToe
				{
					OFFSET -14.301807 2.204399 18.712517
					CHANNELS 6 Xposition Yposition Zposition Zrotation Yrotation Xrotation 
					End Site #name: LeftToe_end_site
					{
						OFFSET -6.634720 15.950195 16.159538
					}
				}
			}
		}
	}
	JOINT RightUpLeg
	{
		OFFSET -6.008467 1.500946 -7.878115
		CHANNELS 6 Xposition Yposition Zposition Zrotation Yrotation Xrotation 
		JOINT RightLowLeg
		{
			OFFSET -7.669543 -46.691193 2.263450
			CHANNELS 6 Xposition Yposition Zposition Zrotation Yrotation Xrotation 
			JOINT RightFoot
			{
				OFFSET 16.419405 -39.122486 -14.156796
				CHANNELS 6 Xposition Yposition Zposition Zrotation Yrotation Xrotation 
				JOINT RightToe
				{
					OFFSET -13.268997 -16.468420 10.596312
					CHANNELS 6 Xposition Yposition Zposition Zrotation Yrotation Xrotation 
					End Site #name: RightToe_end_site
					{
						OFFSET -19.207935 -1.991539 13.661808
					}
				}
			}
		}
	}
}
MOTION
Frames: 4
Frame Time: 0.033333
-0.211795 105.177109 -1.626625 20.465041 29.035062 23.800523 3.471632 13.157986 -0.172487 -7.401640 1.327805 -18.356722 2.437528 20.629337 4.911908 -1.177709 5.194625 2.418140 2.630384 14.354255 2.566375 3.377132 1.540803 6.816299 3.520665 16.530163 2.794390 -0.429547 -1.754767 -6.856531 0.584300 9.844790 3.310572 -1.645259 -1.146897 3.863971 3.166042 11.739887 7.104264 -5.665852 25.449309 2.648093 9.640779 -4.566419 13.814035 17.970117 24.990516 -4.015496 -25.838428 -12.330913 17.377626 -48.590376 -23.168787 -29.769598 -22.974903 -13.452173 13.484883 0.974329 1.267366 -8.072289 -1.927068 13.907712 0.923007 11.059446 -3.911387 -8.729406 -7.798909 5.063073 -14.751567 31.468515 -16.708220 -8.732889 -30.916916 3.025185 12.386550 5.923430 9.067619 10.639251 1.725822 -9.825687 28.034882 -0.546578 -0.660643 2.916481 5.950827 -1.612508 7.815639 29.049143 -6.813751 29.153006 -32.248974 -13.052091 31.603510 -6.783801 2.582359 -1.938887 -27.162664 -30.363907 17.533941 5.073435 -9.830216 -8.796785 -14.226457 2.174059 18.613930 4.711162 3.576238 -3.835309 -5.932110 1.502436 -7.852099 -15.631031 -2.158233 -0.568568 -7.697963 -46.304470 2.251580 -5.522088 0.859784 -10.590514 16.374144 -38.809330 -14.133118 9.956982 -17.232974 14.297636 -13.124123 -16.385529 10.551468 -2.901258 2.028691 -3.545916 
-5.068336 106.031921 -0.824420 17.548127 27.233160 21.032394 3.497600 13.151379 -0.160634 -8.795591 1.258132 -18.729904 2.445634 20.615730 4.912469 -1.299261 4.208472 2.346452 2.634412 14.348235 2.569746 3.509426 1.512437 7.077882 3.520741 16.531559 2.791889 0.523430 0.178430 -5.182622 0.582995 9.839432 3.294115 -1.448617 -1.236045 3.292146 3.162679 11.727935 7.135721 -4.781894 23.850483 3.580783 9.632758 -4.571048 13.814940 17.086285 21.871067 -3.125059 -25.866352 -12.306623 17.391336 -44.372829 -21.451164 -29.302454 -22.962196 -13.476185 13.466516 0.240760 1.537055 -6.456076 -1.922817 13.913947 0.939883 9.567005 -4.037855 -8.716930 -7.804231 5.058070 -14.745443 26.893233 -16.586541 -6.345068 -30.922773 3.028748 12.375961 3.111051 10.480918 6.461687 1.726448 -9.842065 28.028528 -2.070487 -0.814714 2.455137 5.964072 -1.583441 7.815811 29.798736 -6.798224 29.710937 -32.241829 -13.046249 31.604641 -7.360748 1.893365 -3.599163 -27.168884 -30.384066 17.518230 5.020564 -8.597459 -7.410351 -14.230640 2.164535 18.594030 3.864523 5.552718 -4.105152 -5.910525 1.508112 -7.876313 -14.236968 -2.511510 -1.796901 -7.704665 -46.287155 2.244616 -5.567550 0.946521 -11.227384 16.365019 -38.807850 -14.121587 9.782887 -16.360753 13.453993 -13.107199 -16.404261 10.549268 -1.569607 2.108142 -3.344063 
-9.787660 106.622795 -0.103308 15.292206 25.502106 18.966998 3.522840 13.138686 -0.146971 -10.057346 1.332824 -18.981237 2.456709 20.598959 4.908307 -1.175706 3.129110 1.930241 2.643228 14.348145 2.561583 3.242527 0.688078 6.529488 3.524076 16.519840 2.798175 1.164315 1.693732 -4.151278 0.585710 9.836759 3.278236 -1.059009 -1.022373 2.494408 3.159966 11.714167 7.162625 -4.199242 22.189010 4.390082 9.626592 -4.580921 13.816771 15.907599 19.284884 -3.052922 -25.897278 -12.278981 17.404728 -39.206580 -19.503381 -28.482186 -22.942583 -13.491344 13.450288 -0.673397 2.132209 -4.434984 -1.920756 13.922523 0.949241 8.451379 -3.615653 -8.917432 -7.815411 5.051773 -14.733757 22.809685 -15.542485 -3.838023 -30.922421 3.032509 12.358197 0.730519 11.585573 1.954230 1.722764 -9.855693 28.020889 -3.340596 -0.907118 1.864757 5.974416 -1.559464 7.810099 30.391121 -6.261879 30.303545 -32.222061 -13.037111 31.601068 -7.261890 1.624054 -4.816319 -27.157410 -30.392027 17.508797 4.537289 -6.823400 -5.426340 -14.223772 2.156470 18.570601 3.251142 7.016405 -3.986847 -5.891508 1.509552 -7.906772 -13.138952 -2.896832 -3.067682 -7.693635 -46.270782 2.232879 -5.056379 0.931731 -11.654410 16.348753 -38.808239 -14.100620 10.289927 -16.023088 12.934082 -13.088310 -16.414003 10.542535 -0.463110 1.931107 -2.729661 
-14.536554 106.892845 0.421711 14.564911 24.828651 17.020364 3.544688 13.122910 -0.148314 -10.573656 1.362258 -18.947063 2.476666 20.588131 4.909664 -1.792851 3.105664 1.521113 2.658273 14.353599 2.562099 2.987007 0.217735 5.711148 3.544753 16.509428 2.800022 1.568437 2.476822 -3.269937 0.580149 9.842105 3.259758 -1.312386 -0.072935 2.648555 3.170015 11.699917 7.166601 -3.433071 20.381209 4.774245 9.618990 -4.587505 13.829840 14.797827 18.618653 -3.469252 -25.909796 -12.280884 17.403776 -36.656488 -17.758900 -27.478631 -22.946402 -13.505192 13.442708 -1.236738 2.091847 -2.161388 -1.913226 13.933117 0.950488 7.867503 -2.972800 -8.359865 -7.826297 5.044870 -14.718785 19.561295 -14.105589 -2.535847 -30.915831 3.035176 12.369612 -2.634529 12.754948 -3.508633 1.713691 -9.873270 28.025030 -4.598054 -0.680607 0.898302 5.979319 -1.545554 7.813918 31.068430 -6.282880 30.982776 -32.204994 -13.034333 31.611153 -6.671874 1.107868 -5.482549 -27.157848 -30.407185 17.503584 4.012921 -5.507196 -4.053610 -14.215430 2.154410 18.566898 3.035462 7.761670 -3.573735 -5.875019 1.508620 -7.934870 -13.169490 -3.222081 -4.285231 -7.674637 -46.270126 2.235535 -4.554390 1.445234 -11.300718 16.330826 -38.799034 -14.069354 11.487112 -16.378152 12.085980 -13.085629 -16.426876 10.535849 -0.222006 1.995846 -1.786147 
